<svg width="40" height="40" viewBox="0 0 40 40" fill="none" xmlns="http://www.w3.org/2000/svg">
<path d="M5 20C5 21.9698 5.38799 23.9204 6.14181 25.7403C6.89563 27.5601 8.00052 29.2137 9.3934 30.6066C10.7863 31.9995 12.4399 33.1044 14.2597 33.8582C16.0796 34.612 18.0302 35 20 35C21.9698 35 23.9204 34.612 25.7403 33.8582C27.5601 33.1044 29.2137 31.9995 30.6066 30.6066C31.9995 29.2137 33.1044 27.5601 33.8582 25.7403C34.612 23.9204 35 21.9698 35 20C35 18.0302 34.612 16.0796 33.8582 14.2597C33.1044 12.4399 31.9995 10.7863 30.6066 9.3934C29.2137 8.00052 27.5601 6.89563 25.7403 6.14181C23.9204 5.38799 21.9698 5 20 5C18.0302 5 16.0796 5.38799 14.2597 6.14181C12.4399 6.89563 10.7863 8.00052 9.3934 9.3934C8.00052 10.7863 6.89563 12.4399 6.14181 14.2597C5.38799 16.0796 5 18.0302 5 20Z" stroke="#191919" stroke-width="2" stroke-linecap="round" stroke-linejoin="round"/>
<path d="M10.2798 31.4151C10.6923 30.0421 11.5364 28.8387 12.6869 27.9834C13.8373 27.128 15.2329 26.6663 16.6665 26.6667H23.3331C24.7685 26.6663 26.1658 27.1291 27.3171 27.9864C28.4684 28.8437 29.3122 30.0497 29.7231 31.4251M14.9998 16.6667C14.9998 17.9928 15.5266 19.2646 16.4643 20.2023C17.4019 21.14 18.6737 21.6667 19.9998 21.6667C21.3259 21.6667 22.5976 21.14 23.5353 20.2023C24.473 19.2646 24.9998 17.9928 24.9998 16.6667C24.9998 15.3407 24.473 14.0689 23.5353 13.1312C22.5976 12.1935 21.3259 11.6667 19.9998 11.6667C18.6737 11.6667 17.4019 12.1935 16.4643 13.1312C15.5266 14.0689 14.9998 15.3407 14.9998 16.6667Z" stroke="#191919" stroke-width="2" stroke-linecap="round" stroke-linejoin="round"/>
</svg>
