<?xml version="1.0" encoding="UTF-8"?>
<svg width="56px" height="45px" viewBox="0 0 56 45" version="1.1" xmlns="http://www.w3.org/2000/svg" xmlns:xlink="http://www.w3.org/1999/xlink">
    <!-- Generator: sketchtool 51.2 (57519) - http://www.bohemiancoding.com/sketch -->
    <title>8335F9E4-1BDE-4A8E-A220-28E97478F890</title>
    <desc>Created with sketchtool.</desc>
    <defs></defs>
    <g id="Page-1" stroke="none" stroke-width="1" fill="none" fill-rule="evenodd">
        <g id="Buy-tokens" transform="translate(-1513.000000, -684.000000)" fill-rule="nonzero">
            <g id="Group-4" transform="translate(1352.000000, 631.000000)">
                <g id="credit-cards" transform="translate(161.000000, 53.000000)">
                    <g id="Group-5" transform="translate(11.000000, 14.000000)">
                        <rect id="Rectangle-5" fill="#2097D4" x="0.543181818" y="0.532051282" width="42.675" height="28.9423077" rx="3"></rect>
                        <ellipse id="Oval-3" fill="#FFFFFF" cx="16.7079545" cy="16.3814103" rx="4.52613636" ry="4.82371795"></ellipse>
                        <ellipse id="Oval-3" fill="#FFFFFF" cx="24.4670455" cy="16.3814103" rx="4.52613636" ry="4.82371795"></ellipse>
                    </g>
                    <g id="credit-card-(1)" fill="#000000">
                        <path d="M50.9645177,13.1407653 L45.3060895,13.1407653 L45.3060895,4.83023643 C45.3060895,2.16684876 43.223549,0 40.6637891,0 L4.64230046,0 C2.08254051,0.000113003847 0,2.16696177 0,4.83034943 L0,26.5029052 C0,29.1662929 2.08254051,31.3331416 4.64230046,31.3331416 L10.3009459,31.3331416 L10.3009459,39.6441225 C10.3009459,42.3075102 12.3834864,44.474359 14.9432463,44.474359 L50.9645177,44.474359 C53.5242777,44.474359 55.6068182,42.3075102 55.6068182,39.6441225 L55.6068182,17.9710018 C55.6068182,15.3076141 53.5242777,13.1407653 50.9645177,13.1407653 Z M2.65272761,4.83034943 C2.65272761,3.68889758 3.54526048,2.76023196 4.64230046,2.76023196 L40.6637891,2.76023196 C41.7608291,2.76023196 42.6533619,3.68889758 42.6533619,4.83034943 L42.6533619,6.75717802 L2.65272761,6.75717802 L2.65272761,4.83034943 Z M10.3009459,17.9710018 L10.3009459,28.5729097 L4.64230046,28.5729097 C3.54526048,28.5729097 2.65272761,27.6442441 2.65272761,26.5027922 L2.65272761,15.9094726 L10.7461262,15.9094726 C10.4610327,16.5350619 10.3009459,17.2339907 10.3009459,17.9710018 Z M2.65272761,13.1493536 L2.65272761,9.51740999 L42.6533619,9.51740999 L42.6533619,13.1407653 L14.9432463,13.1407653 C14.8535369,13.1407653 14.7646963,13.1440424 14.6762901,13.1493536 L2.65272761,13.1493536 Z M50.9645177,41.71424 L14.9432463,41.71424 C13.8462063,41.71424 12.9536735,40.7855744 12.9536735,39.6441225 L12.9536735,17.9710018 C12.9536735,16.8865038 13.7597551,15.9958075 14.7808788,15.9094726 L43.9793456,15.9094726 C44.0283274,15.9094726 44.0764403,15.9063085 44.1239016,15.9008843 L50.9644091,15.9008843 C52.0614491,15.9008843 52.953982,16.8295499 52.953982,17.9710018 L52.953982,39.6441225 L52.9540906,39.6441225 C52.9540906,40.7855744 52.0615577,41.71424 50.9645177,41.71424 Z" id="Shape"></path>
                        <path d="M35.4130137,22.9118346 C34.0045337,22.9118346 32.7094052,23.4665792 31.687517,24.391001 C30.6398763,23.4383098 29.3344063,22.9110334 27.9535037,22.9110334 C24.6619469,22.9110334 21.9840909,25.9339167 21.9840909,29.6495726 C21.9840909,33.3652286 24.6619469,36.3881119 27.9535037,36.3881119 C29.3345077,36.3881119 30.6398763,35.8608355 31.687517,34.9083732 C32.7094052,35.832795 34.0045337,36.3876541 35.4130137,36.3876541 C38.7042663,36.3876541 41.3818182,33.3649997 41.3818182,29.6496871 C41.3818182,25.9343745 38.7042663,22.9118346 35.4130137,22.9118346 Z M30.1146872,32.7465058 C29.5054476,33.2910643 28.7509192,33.5925286 27.9534023,33.5925286 C26.0273372,33.592643 24.4603879,31.8238008 24.4603879,29.6496871 C24.4603879,27.475459 26.0273372,25.7066167 27.9534023,25.7066167 C28.7509192,25.7066167 29.5053462,26.0081955 30.1146872,26.5526395 C29.687236,27.4806093 29.4442093,28.5333308 29.4442093,29.6494582 C29.4442093,30.7657001 29.6873374,31.8184216 30.1146872,32.7465058 Z M35.4130137,33.5920708 C33.4873542,33.5920708 31.9207091,31.8234574 31.9207091,29.6495726 C31.9207091,27.4758023 33.4874556,25.7073034 35.4130137,25.7073034 C37.3386733,25.7073034 38.9053184,27.4759168 38.9053184,29.6495726 C38.9053184,31.8235719 37.3386733,33.5920708 35.4130137,33.5920708 Z" id="Shape"></path>
                    </g>
                </g>
            </g>
        </g>
    </g>
</svg>