<svg width="212" height="80" viewBox="0 0 212 80" fill="none" xmlns="http://www.w3.org/2000/svg">
<path fill-rule="evenodd" clip-rule="evenodd" d="M40.9939 2.65102L31.7582 18.704L22.5223 2.65102L31.7582 8.00202L40.9939 2.65102ZM15.1902 0L24.4259 16.053H5.95435L15.1902 10.702V0ZM0 21.0995H18.4721L9.23636 37.1525V26.4505L0 21.0995ZM10.6142 44.8501L19.8506 28.7971L29.0863 44.8501L19.8506 39.4991L10.6142 44.8501ZM36.4186 47.5011L27.1828 31.4481H45.6543L36.4186 36.7991V47.5011ZM42.3724 21.0506V10.3486L33.1366 26.4016H51.6081L42.3724 21.0506ZM70.2822 46.1524C69.1856 46.8352 68.0998 47.67 67.0224 48.6555V43.6493L55.5996 47.0344V49.0538C56.9605 49.2814 57.9103 49.6655 58.449 50.2055C58.9871 50.7461 59.2564 51.8795 59.2564 53.6048V65.6075C59.2564 66.8974 59.0199 67.6935 58.5476 67.9968C58.0753 68.3001 57.2247 68.452 55.9965 68.452V70.4999H70.3101V68.452C69.6109 68.452 69.0161 68.3809 68.5245 68.2386C68.0334 68.0964 67.6603 67.8164 67.4052 67.3993C67.15 66.9828 67.0224 66.3853 67.0224 65.6075V51.9831C68.8551 50.1059 70.6316 49.1676 72.3508 49.1676C73.2955 49.1676 74.0751 49.5233 74.6898 50.2339C75.3033 50.9452 75.6107 51.9364 75.6107 53.2065V65.6075C75.6107 66.8019 75.3838 67.5751 74.9302 67.9257C74.4766 68.2767 73.617 68.452 72.3508 68.452V70.4999H86.6365V68.452C85.4837 68.452 84.5861 68.2574 83.9437 67.8688C83.3012 67.4801 82.9797 66.7267 82.9797 65.6075V51.9831C84.2272 50.1059 85.7763 49.1676 87.6282 49.1676C88.6676 49.1676 89.5652 49.5375 90.3211 50.2766C91.0769 51.0163 91.4546 51.9933 91.4546 53.2065V65.2092C91.4546 66.5173 91.1949 67.3851 90.6755 67.8118C90.1555 68.2386 89.3288 68.452 88.1953 68.452V70.4999H102.084V68.452C101.366 68.452 100.789 68.3996 100.355 68.2955C99.9197 68.1914 99.5563 67.9069 99.2637 67.442C98.9705 66.9777 98.8242 66.2334 98.8242 65.2092V52.7797C98.8242 50.1628 98.1392 48.0916 96.7693 46.565C95.3993 45.0389 93.6654 44.2753 91.5679 44.2753C90.1317 44.2753 88.625 44.6736 87.0476 45.4702C85.4695 46.2662 83.972 47.4612 82.555 49.0538C81.988 47.5937 81.1374 46.4227 80.004 45.5407C78.8699 44.6593 77.538 44.2184 76.0075 44.2184C75.1757 44.2184 74.2878 44.3703 73.3431 44.6736C72.3984 44.9768 71.3777 45.4702 70.2822 46.1524ZM113.364 59.0893C114.725 57.652 116.908 56.9333 119.912 56.9333V65.1885C119.175 66.0961 118.353 66.796 117.446 67.2876C116.539 67.7792 115.679 68.025 114.867 68.025C113.846 68.025 113.001 67.6518 112.33 66.9046C111.659 66.1575 111.324 65.1788 111.324 63.9685C111.324 62.1528 112.004 60.5266 113.364 59.0893ZM116.341 70.2499C118.022 69.6666 119.213 68.9246 119.912 68.025C120.195 68.9053 120.819 69.6518 121.783 70.2641C122.747 70.8763 123.805 71.1825 124.957 71.1825C127.319 71.1825 129.313 70.1298 130.938 68.025L130.541 66.8022C130.238 66.916 129.904 67.0395 129.535 67.1721C129.166 67.3047 128.916 67.3707 128.784 67.3707C127.971 67.3707 127.565 66.3675 127.565 64.3595V51.9738C127.565 49.7962 126.809 48.0209 125.297 46.6478C123.785 45.2748 121.178 44.588 117.474 44.588C114.017 44.588 111.282 45.0785 109.269 46.0578C107.257 47.0376 106.042 48.4687 105.627 50.3521C105.627 50.5228 105.57 50.8346 105.457 51.2881C105.457 52.0637 105.787 52.7306 106.448 53.2882C107.11 53.8464 107.838 54.1252 108.631 54.1252C109.595 54.1252 110.474 53.7804 111.267 53.0896C112.061 52.3994 112.486 51.4867 112.543 50.3521C112.562 49.671 112.779 49.0286 113.194 48.4231C113.61 47.8177 114.12 47.3403 114.725 46.9904C115.33 46.6404 115.934 46.4652 116.539 46.4652C117.465 46.4652 118.258 46.9574 118.92 47.9406C119.581 48.9239 119.912 50.4466 119.912 52.5075V54.0114C115.245 54.7693 111.291 55.9779 108.05 57.636C104.809 59.2947 103.189 61.6777 103.189 64.7856C103.189 66.9274 103.955 68.5195 105.485 69.5619C107.015 70.6044 108.924 71.1256 111.21 71.1256C112.949 71.1256 114.659 70.8337 116.341 70.2499ZM149.274 56.9333C146.27 56.9333 144.088 57.652 142.727 59.0893C141.366 60.5266 140.686 62.1528 140.686 63.9685C140.686 65.1788 141.021 66.1575 141.692 66.9046C142.363 67.6518 143.209 68.025 144.229 68.025C145.041 68.025 145.902 67.7792 146.808 67.2876C147.715 66.796 148.537 66.0961 149.274 65.1885V56.9333ZM149.274 68.025C148.575 68.9246 147.384 69.6666 145.703 70.2499C144.021 70.8337 142.311 71.1256 140.573 71.1256C138.286 71.1256 136.378 70.6044 134.847 69.5619C133.317 68.5195 132.551 66.9274 132.551 64.7856C132.551 61.6777 134.171 59.2947 137.413 57.636C140.653 55.9779 144.607 54.7693 149.274 54.0114V52.5075C149.274 50.4466 148.944 48.9239 148.282 47.9406C147.62 46.9574 146.827 46.4652 145.902 46.4652C145.297 46.4652 144.692 46.6404 144.088 46.9904C143.483 47.3403 142.972 47.8177 142.557 48.4231C142.141 49.0286 141.923 49.671 141.905 50.3521C141.848 51.4867 141.423 52.3994 140.629 53.0896C139.835 53.7804 138.957 54.1252 137.993 54.1252C137.2 54.1252 136.472 53.8464 135.811 53.2882C135.149 52.7306 134.819 52.0637 134.819 51.2881C134.932 50.8346 134.989 50.5228 134.989 50.3521C135.404 48.4687 136.619 47.0376 138.631 46.0578C140.643 45.0785 143.379 44.588 146.837 44.588C150.54 44.588 153.148 45.2748 154.659 46.6478C156.171 48.0209 156.927 49.7962 156.927 51.9738V64.3595C156.927 66.3675 157.333 67.3707 158.146 67.3707C158.278 67.3707 158.529 67.3047 158.897 67.1721C159.265 67.0395 159.6 66.916 159.903 66.8022L160.3 68.025C158.674 70.1298 156.681 71.1825 154.32 71.1825C153.167 71.1825 152.109 70.8763 151.145 70.2641C150.181 69.6518 149.558 68.9053 149.274 68.025ZM161.915 50.7606L170.844 70.8979L169.625 73.3441C169.02 74.8605 168.302 75.6196 167.471 75.6196C167.131 75.6196 166.554 75.297 165.742 74.6523C164.929 74.0076 164.329 73.5615 163.942 73.3157C163.555 73.0687 163.012 72.9458 162.312 72.9458C161.613 72.9458 160.98 73.1023 160.413 73.4153C159.846 73.7282 159.421 74.1402 159.138 74.6523C158.855 75.1644 158.713 75.7049 158.713 76.2734C158.713 77.2214 159.133 78.08 159.974 78.8476C160.815 79.6158 162.001 79.9999 163.531 79.9999C165.062 79.9999 166.394 79.6869 167.528 79.061C168.661 78.4351 169.62 77.6055 170.404 76.5721C171.189 75.5388 171.902 74.3297 172.544 72.9458L183.032 49.8787C183.372 48.5705 184.77 47.6225 187.226 47.0342V44.9863H176.598V47.0342C177.429 47.0342 178.161 47.272 178.794 47.7454C179.427 48.2194 179.744 48.8931 179.744 49.7649C179.744 50.2582 179.64 50.8557 179.432 51.5567L174.982 61.4552L169.625 50.7606C169.285 50.0403 169.115 49.4337 169.115 48.9398C169.115 48.3526 169.356 47.8877 169.837 47.5463C170.319 47.2049 170.929 47.0342 171.666 47.0342V44.9863H157.919V47.0342C158.902 47.0342 159.714 47.338 160.357 47.9446C160.999 48.5517 161.519 49.4906 161.915 50.7606ZM200.974 56.9333C197.97 56.9333 195.788 57.652 194.427 59.0893C193.066 60.5266 192.386 62.1528 192.386 63.9685C192.386 65.1788 192.721 66.1575 193.392 66.9046C194.063 67.6518 194.909 68.025 195.929 68.025C196.741 68.025 197.602 67.7792 198.508 67.2876C199.415 66.796 200.237 66.0961 200.974 65.1885V56.9333ZM200.974 68.025C200.275 68.9246 199.084 69.6666 197.403 70.2499C195.721 70.8337 194.011 71.1256 192.273 71.1256C189.986 71.1256 188.078 70.6044 186.547 69.5619C185.017 68.5195 184.251 66.9274 184.251 64.7856C184.251 61.6777 185.871 59.2947 189.113 57.636C192.353 55.9779 196.307 54.7693 200.974 54.0114V52.5075C200.974 50.4466 200.644 48.9239 199.982 47.9406C199.321 46.9574 198.527 46.4652 197.602 46.4652C196.997 46.4652 196.392 46.6404 195.788 46.9904C195.183 47.3403 194.672 47.8177 194.257 48.4231C193.841 49.0286 193.623 49.671 193.605 50.3521C193.548 51.4867 193.123 52.3994 192.329 53.0896C191.536 53.7804 190.657 54.1252 189.693 54.1252C188.9 54.1252 188.172 53.8464 187.511 53.2882C186.85 52.7306 186.519 52.0637 186.519 51.2881C186.632 50.8346 186.689 50.5228 186.689 50.3521C187.104 48.4687 188.319 47.0376 190.331 46.0578C192.344 45.0785 195.079 44.588 198.537 44.588C202.24 44.588 204.848 45.2748 206.359 46.6478C207.871 48.0209 208.627 49.7962 208.627 51.9738V64.3595C208.627 66.3675 209.033 67.3707 209.846 67.3707C209.978 67.3707 210.229 67.3047 210.597 67.1721C210.965 67.0395 211.3 66.916 211.603 66.8022L212 68.025C210.374 70.1298 208.381 71.1825 206.02 71.1825C204.867 71.1825 203.809 70.8763 202.845 70.2641C201.881 69.6518 201.258 68.9053 200.974 68.025Z" fill="url(#paint0_radial_73_201)"/>
<defs>
<radialGradient id="paint0_radial_73_201" cx="0" cy="0" r="1" gradientUnits="userSpaceOnUse" gradientTransform="translate(0.359319 0.406817) scale(228.174 176.049)">
<stop stop-color="#FF7F2C"/>
<stop offset="1" stop-color="#FF0082"/>
</radialGradient>
</defs>
</svg>
