<svg width="372" height="140" viewBox="0 0 372 140" fill="none" xmlns="http://www.w3.org/2000/svg">
<path fill-rule="evenodd" clip-rule="evenodd" d="M71.9326 4.63928L55.7265 32.7319L39.5203 4.63928L55.7265 14.0035L71.9326 4.63928ZM26.6544 0L42.8605 28.0926H10.4482L26.6544 18.7284V0ZM0 36.9241H32.4133L16.2072 65.0167V46.2883L0 36.9241ZM18.6249 78.4875L34.8321 50.3949L51.0382 78.4875L34.8321 69.1233L18.6249 78.4875ZM63.9042 83.1268L47.6981 55.0342H80.1103L63.9042 64.3984V83.1268ZM74.3514 36.8385V18.1101L58.1453 46.2027H90.5575L74.3514 36.8385ZM123.326 80.7673C121.402 81.9622 119.496 83.423 117.606 85.1477V76.3869L97.5621 82.3108V85.8447C99.95 86.243 101.617 86.9152 102.562 87.8602C103.506 88.8062 103.979 90.7897 103.979 93.8089V114.814C103.979 117.071 103.564 118.464 102.735 118.995C101.906 119.526 100.414 119.791 98.2585 119.791V123.375H123.375V119.791C122.148 119.791 121.104 119.667 120.241 119.418C119.38 119.169 118.725 118.679 118.277 117.949C117.83 117.22 117.606 116.175 117.606 114.814V90.971C120.822 87.6859 123.939 86.0439 126.956 86.0439C128.613 86.0439 129.981 86.6662 131.06 87.91C132.136 89.1547 132.676 90.8893 132.676 93.1119V114.814C132.676 116.904 132.278 118.257 131.482 118.87C130.686 119.485 129.177 119.791 126.956 119.791V123.375H152.023V119.791C150 119.791 148.425 119.451 147.298 118.771C146.17 118.091 145.606 116.772 145.606 114.814V90.971C147.795 87.6859 150.514 86.0439 153.763 86.0439C155.587 86.0439 157.162 86.6911 158.488 87.9846C159.815 89.2792 160.477 90.9889 160.477 93.1119V114.117C160.477 116.406 160.022 117.924 159.11 118.671C158.198 119.418 156.747 119.791 154.758 119.791V123.375H179.128V119.791C177.868 119.791 176.856 119.7 176.094 119.518C175.331 119.335 174.693 118.838 174.18 118.024C173.666 117.211 173.409 115.909 173.409 114.117V92.365C173.409 87.7855 172.207 84.1609 169.803 81.4892C167.399 78.8186 164.357 77.4823 160.676 77.4823C158.156 77.4823 155.512 78.1793 152.744 79.5734C149.975 80.9665 147.348 83.0576 144.861 85.8447C143.866 83.2896 142.374 81.2403 140.385 79.6969C138.395 78.1544 136.058 77.3827 133.372 77.3827C131.913 77.3827 130.354 77.6486 128.697 78.1793C127.039 78.71 125.248 79.5734 123.326 80.7673ZM198.922 103.407C201.31 100.891 205.14 99.6338 210.411 99.6338V114.08C209.118 115.669 207.676 116.893 206.084 117.754C204.493 118.614 202.984 119.044 201.558 119.044C199.768 119.044 198.285 118.391 197.108 117.084C195.93 115.776 195.341 114.063 195.341 111.945C195.341 108.768 196.535 105.922 198.922 103.407ZM204.145 122.938C207.095 121.917 209.184 120.619 210.411 119.044C210.909 120.585 212.003 121.891 213.694 122.963C215.385 124.034 217.242 124.57 219.265 124.57C223.409 124.57 226.907 122.728 229.759 119.044L229.062 116.904C228.531 117.104 227.944 117.32 227.297 117.552C226.65 117.784 226.21 117.899 225.979 117.899C224.553 117.899 223.839 116.144 223.839 112.63V90.9547C223.839 87.1439 222.513 84.0371 219.861 81.6343C217.208 79.2315 212.633 78.0296 206.134 78.0296C200.067 78.0296 195.268 78.8879 191.737 80.6017C188.206 82.3164 186.074 84.8207 185.345 88.1167C185.345 88.4155 185.245 88.9611 185.047 89.7548C185.047 91.112 185.626 92.2791 186.787 93.2549C187.948 94.2318 189.224 94.7197 190.616 94.7197C192.308 94.7197 193.85 94.1162 195.242 92.9074C196.635 91.6995 197.381 90.1023 197.481 88.1167C197.513 86.9248 197.895 85.8006 198.624 84.7411C199.353 83.6816 200.249 82.8461 201.31 82.2337C202.371 81.6213 203.432 81.3146 204.493 81.3146C206.117 81.3146 207.51 82.176 208.67 83.8967C209.831 85.6173 210.411 88.282 210.411 91.8887V94.5205C202.222 95.8469 195.284 97.9619 189.597 100.864C183.91 103.766 181.068 107.937 181.068 113.375C181.068 117.123 182.411 119.91 185.096 121.734C187.782 123.558 191.131 124.47 195.142 124.47C198.193 124.47 201.194 123.959 204.145 122.938ZM261.934 99.6338C256.661 99.6338 252.833 100.891 250.445 103.407C248.058 105.922 246.864 108.768 246.864 111.945C246.864 114.063 247.452 115.776 248.63 117.084C249.806 118.391 251.29 119.044 253.08 119.044C254.506 119.044 256.016 118.614 257.607 117.754C259.198 116.893 260.64 115.669 261.934 114.08V99.6338ZM261.934 119.044C260.707 120.619 258.617 121.917 255.667 122.938C252.715 123.959 249.715 124.47 246.665 124.47C242.653 124.47 239.304 123.558 236.619 121.734C233.933 119.91 232.59 117.123 232.59 113.375C232.59 107.937 235.432 103.766 241.12 100.864C246.806 97.9619 253.744 95.8469 261.934 94.5205V91.8887C261.934 88.282 261.354 85.6173 260.192 83.8967C259.031 82.176 257.639 81.3146 256.016 81.3146C254.954 81.3146 253.893 81.6213 252.833 82.2337C251.771 82.8461 250.875 83.6816 250.146 84.7411C249.417 85.8006 249.035 86.9248 249.003 88.1167C248.903 90.1023 248.157 91.6995 246.764 92.9074C245.371 94.1162 243.83 94.7197 242.139 94.7197C240.747 94.7197 239.469 94.2318 238.309 93.2549C237.148 92.2791 236.569 91.112 236.569 89.7548C236.768 88.9611 236.867 88.4155 236.867 88.1167C237.596 84.8207 239.727 82.3164 243.258 80.6017C246.789 78.8879 251.589 78.0296 257.656 78.0296C264.154 78.0296 268.73 79.2315 271.383 81.6343C274.035 84.0371 275.362 87.1439 275.362 90.9547V112.63C275.362 116.144 276.075 117.899 277.501 117.899C277.732 117.899 278.173 117.784 278.818 117.552C279.465 117.32 280.053 117.104 280.584 116.904L281.281 119.044C278.428 122.728 274.931 124.57 270.787 124.57C268.764 124.57 266.907 124.034 265.216 122.963C263.526 121.891 262.431 120.585 261.934 119.044ZM284.115 88.8314L299.782 124.072L297.644 128.353C296.582 131.006 295.322 132.335 293.864 132.335C293.267 132.335 292.255 131.77 290.829 130.642C289.403 129.514 288.351 128.733 287.671 128.303C286.992 127.871 286.038 127.655 284.812 127.655C283.585 127.655 282.474 127.929 281.479 128.477C280.484 129.025 279.738 129.746 279.242 130.642C278.744 131.538 278.495 132.484 278.495 133.479C278.495 135.138 279.233 136.64 280.708 137.984C282.184 139.328 284.264 140 286.951 140C289.636 140 291.973 139.452 293.963 138.357C295.952 137.262 297.635 135.81 299.011 134.002C300.387 132.193 301.639 130.077 302.766 127.655L321.168 87.288C321.765 84.9987 324.218 83.3398 328.529 82.3101V78.7264H309.878V82.3101C311.337 82.3101 312.621 82.7264 313.732 83.5549C314.843 84.3843 315.399 85.5633 315.399 87.0889C315.399 87.9522 315.216 88.9977 314.852 90.2245L307.043 107.547L297.644 88.8314C297.047 87.5708 296.748 86.5093 296.748 85.645C296.748 84.6173 297.171 83.8038 298.016 83.2063C298.862 82.6089 299.931 82.3101 301.225 82.3101V78.7264H277.103V82.3101C278.827 82.3101 280.253 82.8419 281.38 83.9034C282.506 84.9659 283.419 86.6089 284.115 88.8314ZM352.653 99.6338C347.381 99.6338 343.552 100.891 341.164 103.407C338.777 105.922 337.583 108.768 337.583 111.945C337.583 114.063 338.171 115.776 339.349 117.084C340.525 118.391 342.009 119.044 343.799 119.044C345.225 119.044 346.734 118.614 348.325 117.754C349.917 116.893 351.359 115.669 352.653 114.08V99.6338ZM352.653 119.044C351.426 120.619 349.336 121.917 346.386 122.938C343.434 123.959 340.434 124.47 337.384 124.47C333.372 124.47 330.023 123.558 327.337 121.734C324.652 119.91 323.309 117.123 323.309 113.375C323.309 107.937 326.151 103.766 331.839 100.864C337.525 97.9619 344.463 95.8469 352.653 94.5205V91.8887C352.653 88.282 352.073 85.6173 350.911 83.8967C349.751 82.176 348.358 81.3146 346.734 81.3146C345.673 81.3146 344.612 81.6213 343.551 82.2337C342.49 82.8461 341.594 83.6816 340.865 84.7411C340.136 85.8006 339.754 86.9248 339.722 88.1167C339.622 90.1023 338.876 91.6995 337.483 92.9074C336.091 94.1162 334.549 94.7197 332.858 94.7197C331.466 94.7197 330.188 94.2318 329.028 93.2549C327.868 92.2791 327.288 91.112 327.288 89.7548C327.487 88.9611 327.586 88.4155 327.586 88.1167C328.314 84.8207 330.446 82.3164 333.977 80.6017C337.508 78.8879 342.308 78.0296 348.375 78.0296C354.873 78.0296 359.449 79.2315 362.102 81.6343C364.754 84.0371 366.081 87.1439 366.081 90.9547V112.63C366.081 116.144 366.794 117.899 368.22 117.899C368.451 117.899 368.892 117.784 369.537 117.552C370.184 117.32 370.772 117.104 371.303 116.904L372 119.044C369.147 122.728 365.65 124.57 361.506 124.57C359.483 124.57 357.626 124.034 355.935 122.963C354.245 121.891 353.15 120.585 352.653 119.044Z" fill="white"/>
</svg>
