<svg width="212" height="80" viewBox="0 0 212 80" fill="none" xmlns="http://www.w3.org/2000/svg">
<path fill-rule="evenodd" clip-rule="evenodd" d="M40.9939 2.65116L31.7582 18.7041L22.5223 2.65116L31.7582 8.00216L40.9939 2.65116ZM15.1902 0.000142436L24.4259 16.0531H5.95435L15.1902 10.7021V0.000142436ZM0 21.0997H18.4721L9.23636 37.1526V26.4506L0 21.0997ZM10.6142 44.8502L19.8506 28.7972L29.0863 44.8502L19.8506 39.4992L10.6142 44.8502ZM36.4186 47.5012L27.1828 31.4483H45.6543L36.4186 36.7992V47.5012ZM42.3724 21.0507V10.3488L33.1366 26.4017H51.6081L42.3724 21.0507ZM70.2822 46.1526C69.1856 46.8354 68.0998 47.6701 67.0224 48.6557V43.6495L55.5996 47.0345V49.054C56.9605 49.2816 57.9103 49.6657 58.449 50.2056C58.9871 50.7462 59.2564 51.8797 59.2564 53.6049V65.6076C59.2564 66.8976 59.0199 67.6936 58.5476 67.9969C58.0753 68.3002 57.2247 68.4521 55.9965 68.4521V70.5H70.3101V68.4521C69.6109 68.4521 69.0161 68.381 68.5245 68.2387C68.0334 68.0965 67.6603 67.8165 67.4052 67.3995C67.15 66.9829 67.0224 66.3855 67.0224 65.6076V51.9832C68.8551 50.1061 70.6316 49.1678 72.3508 49.1678C73.2955 49.1678 74.0751 49.5234 74.6898 50.2341C75.3033 50.9454 75.6107 51.9366 75.6107 53.2066V65.6076C75.6107 66.802 75.3838 67.5753 74.9302 67.9258C74.4766 68.2769 73.617 68.4521 72.3508 68.4521V70.5H86.6365V68.4521C85.4837 68.4521 84.5861 68.2575 83.9437 67.8689C83.3012 67.4803 82.9797 66.7269 82.9797 65.6076V51.9832C84.2272 50.1061 85.7763 49.1678 87.6282 49.1678C88.6676 49.1678 89.5652 49.5376 90.3211 50.2768C91.0769 51.0165 91.4546 51.9935 91.4546 53.2066V65.2093C91.4546 66.5175 91.1949 67.3852 90.6755 67.812C90.1555 68.2387 89.3288 68.4521 88.1953 68.4521V70.5H102.084V68.4521C101.366 68.4521 100.789 68.3998 100.355 68.2957C99.9197 68.1915 99.5563 67.907 99.2637 67.4421C98.9705 66.9778 98.8242 66.2336 98.8242 65.2093V52.7798C98.8242 50.163 98.1392 48.0918 96.7693 46.5651C95.3993 45.039 93.6654 44.2754 91.5679 44.2754C90.1317 44.2754 88.625 44.6737 87.0476 45.4703C85.4695 46.2664 83.972 47.4613 82.555 49.054C81.988 47.5939 81.1374 46.4229 80.004 45.5409C78.8699 44.6595 77.538 44.2185 76.0075 44.2185C75.1757 44.2185 74.2878 44.3704 73.3431 44.6737C72.3984 44.977 71.3777 45.4703 70.2822 46.1526ZM113.364 59.0894C114.725 57.6521 116.908 56.9334 119.912 56.9334V65.1887C119.175 66.0962 118.353 66.7961 117.446 67.2877C116.539 67.7794 115.679 68.0252 114.867 68.0252C113.846 68.0252 113.001 67.6519 112.33 66.9048C111.659 66.1577 111.324 65.179 111.324 63.9687C111.324 62.153 112.004 60.5267 113.364 59.0894ZM116.341 70.25C118.022 69.6668 119.213 68.9248 119.912 68.0252C120.195 68.9054 120.819 69.652 121.783 70.2642C122.747 70.8765 123.805 71.1826 124.957 71.1826C127.319 71.1826 129.313 70.1299 130.938 68.0252L130.541 66.8024C130.238 66.9162 129.904 67.0396 129.535 67.1722C129.166 67.3048 128.916 67.3708 128.784 67.3708C127.971 67.3708 127.565 66.3676 127.565 64.3596V51.9739C127.565 49.7963 126.809 48.021 125.297 46.648C123.785 45.2749 121.178 44.5882 117.474 44.5882C114.017 44.5882 111.282 45.0786 109.269 46.0579C107.257 47.0378 106.042 48.4688 105.627 50.3522C105.627 50.5229 105.57 50.8348 105.457 51.2883C105.457 52.0638 105.787 52.7307 106.448 53.2883C107.11 53.8465 107.838 54.1254 108.631 54.1254C109.595 54.1254 110.474 53.7805 111.267 53.0898C112.061 52.3995 112.486 51.4869 112.543 50.3522C112.562 49.6711 112.779 49.0287 113.194 48.4233C113.61 47.8179 114.12 47.3405 114.725 46.9905C115.33 46.6406 115.934 46.4653 116.539 46.4653C117.465 46.4653 118.258 46.9575 118.92 47.9408C119.581 48.924 119.912 50.4467 119.912 52.5077V54.0116C115.245 54.7695 111.291 55.9781 108.05 57.6362C104.809 59.2948 103.189 61.6778 103.189 64.7858C103.189 66.9275 103.955 68.5196 105.485 69.5621C107.015 70.6045 108.924 71.1257 111.21 71.1257C112.949 71.1257 114.659 70.8338 116.341 70.25ZM149.274 56.9334C146.27 56.9334 144.088 57.6521 142.727 59.0894C141.366 60.5267 140.686 62.153 140.686 63.9687C140.686 65.179 141.021 66.1577 141.692 66.9048C142.363 67.6519 143.209 68.0252 144.229 68.0252C145.041 68.0252 145.902 67.7794 146.808 67.2877C147.715 66.7961 148.537 66.0962 149.274 65.1887V56.9334ZM149.274 68.0252C148.575 68.9248 147.384 69.6668 145.703 70.25C144.021 70.8338 142.311 71.1257 140.573 71.1257C138.286 71.1257 136.378 70.6045 134.847 69.5621C133.317 68.5196 132.551 66.9275 132.551 64.7858C132.551 61.6778 134.171 59.2948 137.413 57.6362C140.653 55.9781 144.607 54.7695 149.274 54.0116V52.5077C149.274 50.4467 148.944 48.924 148.282 47.9408C147.62 46.9575 146.827 46.4653 145.902 46.4653C145.297 46.4653 144.692 46.6406 144.088 46.9905C143.483 47.3405 142.972 47.8179 142.557 48.4233C142.141 49.0287 141.923 49.6711 141.905 50.3522C141.848 51.4869 141.423 52.3995 140.629 53.0898C139.835 53.7805 138.957 54.1254 137.993 54.1254C137.2 54.1254 136.472 53.8465 135.811 53.2883C135.149 52.7307 134.819 52.0638 134.819 51.2883C134.932 50.8348 134.989 50.5229 134.989 50.3522C135.404 48.4688 136.619 47.0378 138.631 46.0579C140.643 45.0786 143.379 44.5882 146.837 44.5882C150.54 44.5882 153.148 45.2749 154.659 46.648C156.171 48.021 156.927 49.7963 156.927 51.9739V64.3596C156.927 66.3676 157.333 67.3708 158.146 67.3708C158.278 67.3708 158.529 67.3048 158.897 67.1722C159.265 67.0396 159.6 66.9162 159.903 66.8024L160.3 68.0252C158.674 70.1299 156.681 71.1826 154.32 71.1826C153.167 71.1826 152.109 70.8765 151.145 70.2642C150.181 69.652 149.558 68.9054 149.274 68.0252ZM161.915 50.7608L170.844 70.8981L169.625 73.3443C169.02 74.8607 168.302 75.6198 167.471 75.6198C167.131 75.6198 166.554 75.2971 165.742 74.6524C164.929 74.0077 164.329 73.5616 163.942 73.3158C163.555 73.0689 163.012 72.946 162.312 72.946C161.613 72.946 160.98 73.1024 160.413 73.4154C159.846 73.7284 159.421 74.1403 159.138 74.6524C158.855 75.1645 158.713 75.7051 158.713 76.2735C158.713 77.2215 159.133 78.0802 159.974 78.8478C160.815 79.6159 162.001 80 163.531 80C165.062 80 166.394 79.687 167.528 79.0611C168.661 78.4352 169.62 77.6056 170.404 76.5723C171.189 75.539 171.902 74.3298 172.544 72.946L183.032 49.8788C183.372 48.5706 184.77 47.6227 187.226 47.0343V44.9864H176.598V47.0343C177.429 47.0343 178.161 47.2722 178.794 47.7456C179.427 48.2196 179.744 48.8933 179.744 49.765C179.744 50.2583 179.64 50.8558 179.432 51.5568L174.982 61.4553L169.625 50.7608C169.285 50.0404 169.115 49.4338 169.115 48.9399C169.115 48.3527 169.356 47.8878 169.837 47.5464C170.319 47.205 170.929 47.0343 171.666 47.0343V44.9864H157.919V47.0343C158.902 47.0343 159.714 47.3382 160.357 47.9447C160.999 48.5519 161.519 49.4907 161.915 50.7608ZM200.974 56.9334C197.97 56.9334 195.788 57.6521 194.427 59.0894C193.066 60.5267 192.386 62.153 192.386 63.9687C192.386 65.179 192.721 66.1577 193.392 66.9048C194.063 67.6519 194.909 68.0252 195.929 68.0252C196.741 68.0252 197.602 67.7794 198.508 67.2877C199.415 66.7961 200.237 66.0962 200.974 65.1887V56.9334ZM200.974 68.0252C200.275 68.9248 199.084 69.6668 197.403 70.25C195.721 70.8338 194.011 71.1257 192.273 71.1257C189.986 71.1257 188.078 70.6045 186.547 69.5621C185.017 68.5196 184.251 66.9275 184.251 64.7858C184.251 61.6778 185.871 59.2948 189.113 57.6362C192.353 55.9781 196.307 54.7695 200.974 54.0116V52.5077C200.974 50.4467 200.644 48.924 199.982 47.9408C199.321 46.9575 198.527 46.4653 197.602 46.4653C196.997 46.4653 196.392 46.6406 195.788 46.9905C195.183 47.3405 194.672 47.8179 194.257 48.4233C193.841 49.0287 193.623 49.6711 193.605 50.3522C193.548 51.4869 193.123 52.3995 192.329 53.0898C191.536 53.7805 190.657 54.1254 189.693 54.1254C188.9 54.1254 188.172 53.8465 187.511 53.2883C186.85 52.7307 186.519 52.0638 186.519 51.2883C186.632 50.8348 186.689 50.5229 186.689 50.3522C187.104 48.4688 188.319 47.0378 190.331 46.0579C192.344 45.0786 195.079 44.5882 198.537 44.5882C202.24 44.5882 204.848 45.2749 206.359 46.648C207.871 48.021 208.627 49.7963 208.627 51.9739V64.3596C208.627 66.3676 209.033 67.3708 209.846 67.3708C209.978 67.3708 210.229 67.3048 210.597 67.1722C210.965 67.0396 211.3 66.9162 211.603 66.8024L212 68.0252C210.374 70.1299 208.381 71.1826 206.02 71.1826C204.867 71.1826 203.809 70.8765 202.845 70.2642C201.881 69.652 201.258 68.9054 200.974 68.0252Z" fill="url(#paint0_radial_36_1009)"/>
<defs>
<radialGradient id="paint0_radial_36_1009" cx="0" cy="0" r="1" gradientUnits="userSpaceOnUse" gradientTransform="translate(0.359319 0.406817) scale(228.174 176.049)">
<stop stop-color="#FF7F2C"/>
<stop offset="1" stop-color="#FF0082"/>
</radialGradient>
</defs>
</svg>
