<svg width="277" height="74" viewBox="0 0 277 74" fill="none" xmlns="http://www.w3.org/2000/svg">
<path fill-rule="evenodd" clip-rule="evenodd" d="M78.0933 2.45224L69.5111 17.3012L60.9288 2.45224L69.5111 7.40191L78.0933 2.45224ZM54.1154 4.14816e-05L62.6976 14.849H45.533L54.1154 9.89937V4.14816e-05ZM40 19.5171H57.1651L48.5828 34.3661V24.4668L40 19.5171ZM49.8632 41.4864L58.446 26.6374L67.0283 41.4864L58.446 36.5367L49.8632 41.4864ZM73.8417 43.9386L65.2595 29.0896H82.424L73.8417 34.0392V43.9386ZM79.3743 19.4718V9.57252L70.792 24.4215H87.9565L79.3743 19.4718ZM105.309 42.6912C104.29 43.3228 103.281 44.0949 102.28 45.0065V40.3758L91.6658 43.507V45.3749C92.9304 45.5855 93.8129 45.9408 94.3135 46.4403C94.8135 46.9403 95.0638 47.9887 95.0638 49.5846V60.6871C95.0638 61.8803 94.8441 62.6166 94.4052 62.8972C93.9662 63.1777 93.1759 63.3182 92.0346 63.3182V65.2125H105.335V63.3182C104.686 63.3182 104.133 63.2525 103.676 63.1209C103.22 62.9893 102.873 62.7303 102.636 62.3445C102.399 61.9592 102.28 61.4066 102.28 60.6871V48.0845C103.983 46.3481 105.634 45.4802 107.232 45.4802C108.11 45.4802 108.834 45.8092 109.405 46.4666C109.975 47.1245 110.261 48.0414 110.261 49.2161V60.6871C110.261 61.7919 110.05 62.5072 109.629 62.8314C109.207 63.1561 108.408 63.3182 107.232 63.3182V65.2125H120.507V63.3182C119.435 63.3182 118.601 63.1382 118.004 62.7788C117.407 62.4193 117.109 61.7224 117.109 60.6871V48.0845C118.268 46.3481 119.707 45.4802 121.428 45.4802C122.394 45.4802 123.228 45.8223 123.93 46.506C124.633 47.1903 124.984 48.094 124.984 49.2161V60.3187C124.984 61.5287 124.742 62.3314 124.26 62.7261C123.777 63.1209 123.008 63.3182 121.955 63.3182V65.2125H134.861V63.3182C134.194 63.3182 133.658 63.2698 133.254 63.1735C132.85 63.0772 132.512 62.814 132.24 62.384C131.968 61.9545 131.832 61.2661 131.832 60.3187V48.8214C131.832 46.4008 131.195 44.4849 129.922 43.0728C128.649 41.6611 127.038 40.9548 125.089 40.9548C123.754 40.9548 122.354 41.3232 120.889 42.0601C119.422 42.7964 118.031 43.9017 116.714 45.3749C116.187 44.0244 115.397 42.9412 114.343 42.1254C113.29 41.3101 112.052 40.9021 110.63 40.9021C109.857 40.9021 109.032 41.0427 108.154 41.3232C107.276 41.6037 106.327 42.0601 105.309 42.6912ZM145.343 54.6579C146.608 53.3284 148.636 52.6637 151.427 52.6637V60.2997C150.742 61.1392 149.979 61.7866 149.136 62.2414C148.293 62.6961 147.494 62.9235 146.739 62.9235C145.791 62.9235 145.005 62.5782 144.382 61.8872C143.759 61.1961 143.447 60.2908 143.447 59.1713C143.447 57.4917 144.079 55.9875 145.343 54.6579ZM148.109 64.9815C149.671 64.442 150.778 63.7556 151.427 62.9235C151.691 63.7378 152.27 64.4283 153.166 64.9946C154.061 65.561 155.044 65.8442 156.116 65.8442C158.31 65.8442 160.163 64.8704 161.673 62.9235L161.304 61.7924C161.023 61.8977 160.712 62.0119 160.369 62.1345C160.027 62.2572 159.794 62.3182 159.671 62.3182C158.916 62.3182 158.538 61.3903 158.538 59.5329V48.0761C158.538 46.0618 157.836 44.4197 156.431 43.1496C155.027 41.8796 152.604 41.2443 149.162 41.2443C145.949 41.2443 143.408 41.698 141.538 42.6038C139.668 43.5102 138.539 44.8339 138.153 46.5761C138.153 46.734 138.1 47.0224 137.995 47.4419C137.995 48.1593 138.302 48.7761 138.916 49.2919C139.531 49.8083 140.207 50.0662 140.944 50.0662C141.84 50.0662 142.657 49.7472 143.394 49.1083C144.132 48.4698 144.527 47.6256 144.58 46.5761C144.597 45.946 144.799 45.3518 145.185 44.7918C145.571 44.2317 146.045 43.7902 146.608 43.4665C147.169 43.1428 147.731 42.9807 148.293 42.9807C149.153 42.9807 149.891 43.4359 150.505 44.3454C151.12 45.2549 151.427 46.6634 151.427 48.5698V49.9609C147.09 50.662 143.416 51.7799 140.405 53.3137C137.393 54.8479 135.888 57.0522 135.888 59.9271C135.888 61.9082 136.599 63.3809 138.021 64.3452C139.443 65.3094 141.217 65.7915 143.341 65.7915C144.957 65.7915 146.546 65.5215 148.109 64.9815ZM178.712 52.6637C175.92 52.6637 173.893 53.3284 172.628 54.6579C171.364 55.9875 170.732 57.4917 170.732 59.1713C170.732 60.2908 171.043 61.1961 171.667 61.8872C172.29 62.5782 173.076 62.9235 174.024 62.9235C174.779 62.9235 175.578 62.6961 176.421 62.2414C177.264 61.7866 178.027 61.1392 178.712 60.2997V52.6637ZM178.712 62.9235C178.063 63.7556 176.956 64.442 175.394 64.9815C173.83 65.5215 172.242 65.7915 170.626 65.7915C168.502 65.7915 166.728 65.3094 165.306 64.3452C163.884 63.3809 163.173 61.9082 163.173 59.9271C163.173 57.0522 164.678 54.8479 167.69 53.3137C170.701 51.7799 174.375 50.662 178.712 49.9609V48.5698C178.712 46.6634 178.405 45.2549 177.79 44.3454C177.175 43.4359 176.438 42.9807 175.578 42.9807C175.016 42.9807 174.454 43.1428 173.893 43.4665C173.33 43.7902 172.856 44.2317 172.47 44.7918C172.084 45.3518 171.881 45.946 171.864 46.5761C171.812 47.6256 171.417 48.4698 170.679 49.1083C169.941 49.7472 169.125 50.0662 168.229 50.0662C167.492 50.0662 166.816 49.8083 166.201 49.2919C165.586 48.7761 165.28 48.1593 165.28 47.4419C165.385 47.0224 165.438 46.734 165.438 46.5761C165.824 44.8339 166.952 43.5102 168.822 42.6038C170.692 41.698 173.234 41.2443 176.447 41.2443C179.888 41.2443 182.311 41.8796 183.716 43.1496C185.121 44.4197 185.823 46.0618 185.823 48.0761V59.5329C185.823 61.3903 186.201 62.3182 186.956 62.3182C187.078 62.3182 187.312 62.2572 187.654 62.1345C187.996 62.0119 188.308 61.8977 188.589 61.7924L188.958 62.9235C187.447 64.8704 185.595 65.8442 183.401 65.8442C182.329 65.8442 181.346 65.561 180.45 64.9946C179.555 64.4283 178.976 63.7378 178.712 62.9235ZM190.459 46.9538L198.756 65.5808L197.624 67.8436C197.061 69.2462 196.394 69.9484 195.622 69.9484C195.306 69.9484 194.77 69.6499 194.015 69.0536C193.26 68.4573 192.702 68.0446 192.342 67.8172C191.983 67.5888 191.478 67.4751 190.828 67.4751C190.178 67.4751 189.59 67.6199 189.063 67.9093C188.537 68.1988 188.141 68.5799 187.878 69.0536C187.615 69.5273 187.483 70.0273 187.483 70.5531C187.483 71.43 187.874 72.2242 188.655 72.9343C189.436 73.6448 190.538 74.0001 191.961 74.0001C193.383 74.0001 194.621 73.7106 195.675 73.1316C196.728 72.5527 197.619 71.7853 198.348 70.8295C199.076 69.8736 199.739 68.7552 200.336 67.4751L210.081 46.138C210.397 44.9279 211.697 44.0511 213.979 43.5068V41.6126H204.102V43.5068C204.875 43.5068 205.555 43.7268 206.144 44.1648C206.732 44.6032 207.026 45.2264 207.026 46.0327C207.026 46.4891 206.929 47.0417 206.736 47.6902L202.601 56.8463L197.624 46.9538C197.307 46.2875 197.149 45.7264 197.149 45.2695C197.149 44.7264 197.373 44.2963 197.821 43.9805C198.269 43.6647 198.835 43.5068 199.52 43.5068V41.6126H186.746V43.5068C187.659 43.5068 188.414 43.7879 189.011 44.349C189.607 44.9106 190.09 45.779 190.459 46.9538ZM226.754 52.6637C223.963 52.6637 221.935 53.3284 220.67 54.6579C219.406 55.9875 218.774 57.4917 218.774 59.1713C218.774 60.2908 219.085 61.1961 219.709 61.8872C220.332 62.5782 221.118 62.9235 222.066 62.9235C222.821 62.9235 223.62 62.6961 224.463 62.2414C225.306 61.7866 226.069 61.1392 226.754 60.2997V52.6637ZM226.754 62.9235C226.105 63.7556 224.998 64.442 223.436 64.9815C221.872 65.5215 220.284 65.7915 218.668 65.7915C216.544 65.7915 214.77 65.3094 213.348 64.3452C211.926 63.3809 211.215 61.9082 211.215 59.9271C211.215 57.0522 212.72 54.8479 215.732 53.3137C218.743 51.7799 222.417 50.662 226.754 49.9609V48.5698C226.754 46.6634 226.447 45.2549 225.832 44.3454C225.218 43.4359 224.48 42.9807 223.62 42.9807C223.058 42.9807 222.496 43.1428 221.935 43.4665C221.372 43.7902 220.898 44.2317 220.512 44.7918C220.126 45.3518 219.923 45.946 219.906 46.5761C219.854 47.6256 219.459 48.4698 218.721 49.1083C217.984 49.7472 217.167 50.0662 216.271 50.0662C215.534 50.0662 214.858 49.8083 214.243 49.2919C213.629 48.7761 213.322 48.1593 213.322 47.4419C213.427 47.0224 213.48 46.734 213.48 46.5761C213.865 44.8339 214.994 43.5102 216.864 42.6038C218.734 41.698 221.276 41.2443 224.489 41.2443C227.93 41.2443 230.353 41.8796 231.758 43.1496C233.163 44.4197 233.865 46.0618 233.865 48.0761V59.5329C233.865 61.3903 234.243 62.3182 234.998 62.3182C235.12 62.3182 235.354 62.2572 235.696 62.1345C236.038 62.0119 236.35 61.8977 236.631 61.7924L237 62.9235C235.489 64.8704 233.637 65.8442 231.443 65.8442C230.371 65.8442 229.388 65.561 228.492 64.9946C227.597 64.4283 227.018 63.7378 226.754 62.9235Z" fill="#191919"/>
</svg>
