<?xml version="1.0" encoding="UTF-8"?>
<svg width="56px" height="59px" viewBox="0 0 56 59" version="1.1" xmlns="http://www.w3.org/2000/svg" xmlns:xlink="http://www.w3.org/1999/xlink">
    <!-- Generator: sketchtool 51.2 (57519) - http://www.bohemiancoding.com/sketch -->
    <title>747F07B3-D29E-4489-ADC1-A8253DC870DD</title>
    <desc>Created with sketchtool.</desc>
    <defs></defs>
    <g id="Page-1" stroke="none" stroke-width="1" fill="none" fill-rule="evenodd">
        <g id="Buy-tokens" transform="translate(-970.000000, -679.000000)" fill-rule="nonzero">
            <g id="Group-2" transform="translate(815.000000, 631.000000)">
                <g id="wire-transfer" transform="translate(155.137056, 48.237179)">
                    <path d="M12.0255779,9.62522849 C23.6586163,2.81433679 24.1337741,6.54477881 28.8936861,9.62522849 C33.653598,12.7056782 32.7463685,23.0373403 32.6144487,23.7437556 C32.2238172,25.8355418 30.0905039,24.6752118 29.9477737,25.1118665 C29.3825206,26.8411469 29.5401624,31.9111705 28.8936861,32.9636617 C26.8578,36.2781718 22.089262,36.6052975 14.5880723,33.9450389 L14.5880718,33.9450403 C12.8946783,33.344487 11.4527491,32.1913692 10.4945757,30.6714516 C4.30911523,20.8596682 4.81944933,13.8442605 12.0255779,9.62522849 Z" id="Rectangle-4" fill="#2097D4"></path>
                    <path d="M19.0633747,16.1939103 L23.6648206,16.1939103 C24.3915268,16.1939103 24.9795722,15.6159973 24.9795722,14.9018127 C24.9795722,14.187628 24.3915268,13.6097151 23.6648206,13.6097151 L21.0354406,13.6097151 L21.0354406,12.3177386 C21.0354406,11.603554 20.4473952,11.025641 19.7206889,11.025641 C18.9939827,11.025641 18.4060606,11.603554 18.4060606,12.3177386 L18.4060606,13.6751255 C16.1818168,13.9918814 14.4619289,15.8598327 14.4619289,18.1319961 C14.4619289,20.6252224 16.5264353,22.6541559 19.0633747,22.6541559 L20.3781264,22.6541559 C21.4643649,22.6541559 22.3501922,23.5235086 22.3501922,24.5922418 C22.3501922,25.660975 21.4642416,26.5303276 20.3781264,26.5303276 L15.7766806,26.5303276 C15.0499743,26.5303276 14.4619289,27.1082406 14.4619289,27.8224252 C14.4619289,28.5366098 15.0499743,29.1145228 15.7766806,29.1145228 L17.0914322,29.1145228 L17.0914322,30.4066204 C17.0914322,31.120805 17.6794776,31.6987179 18.4061838,31.6987179 C19.1328901,31.6987179 19.7209354,31.120805 19.7209354,30.4066204 L19.7209354,29.1145228 L20.3782496,29.1145228 C22.915189,29.1145228 24.9796954,27.0855892 24.9796954,24.5923629 C24.9796954,22.0991366 22.915189,20.070203 20.3782496,20.070203 L19.063498,20.070203 C17.9772595,20.070203 17.0914322,19.2008504 17.0914322,18.1321172 C17.0913089,17.0632629 17.9772595,16.1939103 19.0633747,16.1939103 Z" id="Shape" fill="#FFFFFF"></path>
                    <path d="M54.8040475,45.0658932 L38.3869403,29.5772442 C39.5414639,26.8698817 40.1587864,24.0120554 40.1587864,21.0484111 C40.1586687,9.44259256 31.1509607,0 20.0793932,0 C9.00782565,0 0,9.44259256 0,21.0485345 C0,32.6544764 9.00782565,42.0970689 20.0793932,42.0970689 C22.6579823,42.0970689 25.2206882,41.5462726 27.6091509,40.5313817 L27.6091509,56.5679903 C27.6091509,57.099917 27.9155179,57.5802913 28.3836571,57.7832942 C28.8567377,57.988887 29.3934682,57.8757924 29.7538377,57.4967962 L36.2149581,50.7045872 L39.5411109,57.1910586 C39.7666507,57.6317204 40.2004353,57.8835623 40.6465735,57.8835623 C40.8377587,57.8835623 41.028944,57.8385465 41.2078934,57.7435816 L47.0979287,54.6487131 C47.4042958,54.4893694 47.6347769,54.2054614 47.7352521,53.8637112 C47.8357273,53.5219609 47.8014905,53.1519679 47.6372476,52.8384604 L44.7569976,47.3591101 L53.963303,47.3591101 C54.4829739,47.3591101 54.9486424,47.023773 55.1348863,46.5150326 C55.3211301,46.0062922 55.1887711,45.4308296 54.8040475,45.0658932 Z M27.6091509,37.6496292 C25.2590429,38.8217672 22.6801009,39.4659251 20.0793932,39.4659251 C10.3927128,39.4659251 2.50999768,31.2039803 2.50999768,21.0485345 C2.50999768,10.8930886 10.3927128,2.63114389 20.0793932,2.63114389 C29.7660736,2.63114389 37.6487887,10.8930886 37.6487887,21.0485345 C37.6487887,23.3542078 37.2248869,25.5895825 36.4230853,27.724689 L34.3747559,25.7923387 C34.8454834,24.2441644 35.1389087,22.6591142 35.1389087,21.0485345 C35.1389087,12.3434614 28.3836571,5.26216445 20.0793932,5.26216445 C11.7751293,5.26216445 5.01987771,12.3434614 5.01987771,21.0485345 C5.01987771,29.7536076 11.7751293,36.8349045 20.0793932,36.8349045 C22.7342211,36.8349045 25.3323404,36.0862852 27.6091509,34.7090478 L27.6091509,37.6496292 Z M29.7047766,21.3863381 C29.334642,21.0381747 28.8052059,20.9520896 28.354244,21.162739 C27.9008114,21.3733884 27.6091509,21.8448828 27.6091509,22.3639831 L27.6091509,31.5255043 C25.4425808,33.2363521 22.8028124,34.2037606 20.0793932,34.2037606 C13.1600164,34.2037606 7.52975774,28.3018782 7.52975774,21.0484111 C7.52975774,13.7949441 13.1598988,7.89318501 20.0793932,7.89318501 C26.9988876,7.89318501 32.6290286,13.7950674 32.6290286,21.0485345 C32.6290286,21.9894268 32.5003168,22.9195893 32.3054844,23.8400087 L29.7047766,21.3863381 Z M42.6343119,44.7280895 C42.1906444,44.7280895 41.7788608,44.9735182 41.553321,45.374344 C41.3277813,45.7751698 41.3204868,46.2710838 41.5336731,46.6783229 L44.8082941,52.9103624 L41.1733036,54.8194032 L37.6265524,47.8974499 C37.4378378,47.5312802 37.0971163,47.2795616 36.7025099,47.2191294 C36.641213,47.2101262 36.5823868,47.2049463 36.5210898,47.2049463 C36.1901334,47.2049463 35.8690599,47.3424604 35.6337549,47.591589 L30.1187956,53.3855568 L30.1187956,25.3175143 L50.6932704,44.7279662 L42.6343119,44.7279662 L42.6343119,44.7280895 Z" id="Shape" fill="#000000"></path>
                </g>
            </g>
        </g>
    </g>
</svg>