<svg width="66" height="48" viewBox="0 0 66 48" fill="none" xmlns="http://www.w3.org/2000/svg">
<g clip-path="url(#clip0_32_679)">
<path d="M48.2184 43.5168L47.6904 43.4851C46.585 43.4183 45.5007 43.3127 44.4376 43.1683C43.3744 43.024 42.35 42.8673 41.3643 42.6983C40.3821 42.5259 39.4369 42.3164 38.5287 42.07V33.9802C39.7168 34.0858 41.0052 34.1703 42.3887 34.2442C43.7722 34.3181 45.1716 34.3657 46.6132 34.3974C48.0547 34.429 49.3538 34.4502 50.5788 34.4502C51.5482 34.4687 52.5167 34.3819 53.4673 34.1914C54.1128 34.0774 54.7141 33.7868 55.2046 33.3518C55.4021 33.14 55.5548 32.8905 55.6537 32.6184C55.7526 32.3462 55.7956 32.0568 55.7802 31.7677V31.1551C55.8015 30.8176 55.736 30.4802 55.5899 30.1752C55.4439 29.8701 55.2221 29.6076 54.9458 29.4125C54.3845 29.0208 53.7133 28.8174 53.029 28.8317H50.2673C46.2083 28.8317 43.1262 27.9393 41.0211 26.1545C38.9159 24.3696 37.8598 21.3773 37.8528 17.1776V15.4403C37.8528 11.5925 39.0092 8.71287 41.3221 6.80132C43.047 5.37558 45.3353 4.48317 48.1868 4.12409V0H53.8897V4.00792C54.6026 4.04488 55.2943 4.10297 55.965 4.1769C57.4171 4.33531 58.7795 4.52541 60.0627 4.75248C61.3458 4.97954 62.4864 5.21716 63.5003 5.46007V13.5498C61.888 13.4125 60.0767 13.2981 58.0666 13.2066C56.0495 13.1221 54.2224 13.0746 52.5749 13.0746C51.6903 13.0673 50.8068 13.1379 49.9346 13.2858C49.2681 13.3775 48.6454 13.6704 48.1498 14.1254C47.9328 14.3764 47.7682 14.6683 47.6657 14.9839C47.5632 15.2995 47.5249 15.6324 47.5531 15.963V16.4911C47.5272 16.864 47.5881 17.2379 47.7311 17.5833C47.874 17.9287 48.095 18.2363 48.3769 18.4818C49.1324 18.9931 50.0389 19.2333 50.9485 19.163H54.4178C56.5445 19.0861 58.6543 19.5667 60.5379 20.5571C62.1168 21.4242 63.4031 22.7399 64.2343 24.338C65.0795 26.0226 65.5035 27.8871 65.4699 29.7716V31.5036C65.4699 34.8304 64.8926 37.3703 63.7379 39.1234C62.5831 40.8707 60.8256 42.1319 58.8006 42.6667C57.1964 43.1099 55.5507 43.3859 53.8897 43.4904V48H48.2184V43.5168ZM0.556396 43.3003L12.1102 4.25611H24.8468L36.3742 43.3003H25.8132L24.229 37.1063H12.5326L11.0066 43.3003H0.556396ZM14.893 27.9868H21.8792L18.3623 12.9215L14.893 27.9393V27.9868Z" fill="#2C8ACC"/>
</g>
<defs>
<clipPath id="clip0_32_679">
<rect width="64.8871" height="48" fill="white" transform="translate(0.556396)"/>
</clipPath>
</defs>
</svg>
